<?xml version="1.0" encoding="utf-8"?>
<!-- Generator: Adobe Illustrator 26.0.1, SVG Export Plug-In . SVG Version: 6.00 Build 0)  -->
<svg version="1.1" id="Camada_1" xmlns="http://www.w3.org/2000/svg" xmlns:xlink="http://www.w3.org/1999/xlink" x="0px" y="0px"
	 viewBox="0 0 82 23" style="enable-background:new 0 0 82 23;" xml:space="preserve">
<style type="text/css">
	.st0{fill:#0066FF;}
</style>
<desc>Created with Sketch.</desc>
<g>
	<g>
		<g>
			<g>
				<circle class="st0" cx="3" cy="4.5" r="3"/>
			</g>
			<g>
				<circle class="st0" cx="9.9" cy="4.5" r="3"/>
			</g>
			<g>
				<circle class="st0" cx="16.7" cy="4.5" r="3"/>
			</g>
			<g>
				<circle class="st0" cx="9.9" cy="11.4" r="3"/>
			</g>
			<g>
				<circle class="st0" cx="9.9" cy="18.3" r="3"/>
			</g>
		</g>
	</g>
	<g>
		<path class="st0" d="M26,9.2h-2.8V7.5h7.1v1.7h-2.8v7.5H26V9.2z"/>
		<path class="st0" d="M36.1,14.6c-0.2,0.6-0.9,2.1-3,2.1c-1.9,0-3.4-1.5-3.4-3.4c0-2.1,1.5-3.4,3.4-3.4c1.9,0,3.2,1.5,3.2,3.4
			c0,0.2,0,0.4,0,0.6V14h-4.9c0.2,0.9,0.7,1.5,1.7,1.5c0.7,0,1.3-0.4,1.3-0.7h1.7V14.6z M34.6,12.7c-0.2-0.9-0.7-1.5-1.7-1.5
			s-1.5,0.6-1.7,1.5H34.6z"/>
		<path class="st0" d="M37.3,7.5h1.7v9.2h-1.7V7.5z"/>
		<path class="st0" d="M46.2,14.6c-0.2,0.6-0.9,2.1-3,2.1c-1.9,0-3.4-1.5-3.4-3.4c0-2.1,1.5-3.4,3.4-3.4c1.9,0,3.2,1.5,3.2,3.4
			c0,0.2,0,0.4,0,0.6V14h-4.9c0.2,0.9,0.7,1.5,1.7,1.5c0.7,0,1.3-0.4,1.3-0.7h1.7V14.6z M44.9,12.7c-0.2-0.9-0.7-1.5-1.7-1.5
			c-0.9,0-1.5,0.6-1.7,1.5H44.9z"/>
		<path class="st0" d="M47.9,11.6h-1.1v-1.5h1.1V9.2c0-0.9,0.6-1.7,1.7-1.7h1.5v1.3h-0.9c-0.2,0-0.4,0.2-0.4,0.4v0.7h1.5v1.5h-1.5
			v5.1h-1.7v-4.9H47.9z"/>
		<path class="st0" d="M58,13.3c0,2.1-1.5,3.4-3.4,3.4s-3.4-1.5-3.4-3.4c0-2.1,1.5-3.4,3.4-3.4C56.7,9.9,58,11.2,58,13.3z
			 M56.5,13.3c0-1.1-0.7-1.9-1.7-1.9s-1.7,0.7-1.7,1.9s0.7,1.9,1.7,1.9C55.6,15.1,56.5,14.4,56.5,13.3z"/>
		<path class="st0" d="M59.2,9.9h1.5l0.2,0.6l0,0c0.2-0.2,0.2-0.2,0.4-0.4c0.4-0.2,0.7-0.4,1.3-0.4c1.5,0,2.6,1.1,2.6,2.8v3.9h-1.7
			v-3.9c0-0.9-0.6-1.5-1.5-1.5s-1.5,0.6-1.5,1.5v3.9h-1.7V9.9H59.2z"/>
		<path class="st0" d="M75.6,14.2c-0.2,1.1-1.1,2.6-3.2,2.6c-1.9,0-3.4-1.5-3.4-3.4c0-2.1,1.5-3.4,3.4-3.4c2.1,0,3,1.5,3.2,2.6h-1.7
			c-0.2-0.4-0.6-1.1-1.5-1.1s-1.7,0.7-1.7,1.9s0.7,1.9,1.7,1.9s1.3-0.6,1.5-1.1C73.9,14.2,75.6,14.2,75.6,14.2z"/>
		<path class="st0" d="M80.5,15.9L80.5,15.9c-0.2,0.2-0.4,0.4-0.6,0.4c-0.4,0.2-0.7,0.4-1.5,0.4c-1.5,0-2.4-0.9-2.4-2.1
			c0-1.3,0.9-2.2,2.8-2.2h1.5v-0.2c0-0.7-0.4-1.3-1.1-1.3c-0.7,0-1.1,0.6-1.1,0.9h-1.7c0.2-1.1,1.1-2.1,2.8-2.1s2.8,1.1,2.8,2.6v4.3
			h-1.3L80.5,15.9z M80.3,13.6H79c-0.9,0-1.3,0.4-1.3,0.9c0,0.6,0.4,0.9,1.1,0.9c0.9,0,1.5-0.6,1.5-1.5C80.3,14,80.3,13.6,80.3,13.6
			z"/>
		<path class="st0" d="M66.5,9.9h1.7v6.7h-1.7V9.9z"/>
		<g>
			<circle class="st0" cx="67.2" cy="8" r="0.9"/>
		</g>
		<polygon class="st0" points="55.2,7.1 56.9,7.1 55.4,9 54.1,9 		"/>
	</g>
</g>
</svg>
