<?xml version="1.0" encoding="utf-8"?>
<!-- Generator: Adobe Illustrator 23.0.4, SVG Export Plug-In . SVG Version: 6.00 Build 0)  -->
<svg version="1.1" id="Layer_1" xmlns="http://www.w3.org/2000/svg" xmlns:xlink="http://www.w3.org/1999/xlink" x="0px" y="0px"
	 viewBox="0 0 396.85 57.88" style="enable-background:new 0 0 396.85 57.88;" xml:space="preserve">
<style type="text/css">
	.st0{fill:#FFD65A;}
	.st1{fill:#008457;}
	.st2{fill:#0066CC;}
	.st3{fill-rule:evenodd;clip-rule:evenodd;}
	.st4{fill:#005FE6;}
	.st5{fill:#FFFFFF;}
	.st6{fill:#001E73;}
	.st7{fill:#00A032;}
	.st8{fill:#FFCD00;}
	.st9{fill-rule:evenodd;clip-rule:evenodd;fill:#008457;}
</style>
<g>
	<g>
		<path class="st0" d="M60.55,53.9l1.95-4.37c1.05-2.36-0.06-5.18-2.51-6.24L39.27,32.98v-0.16l20.71-10.3
			c2.46-1.06,3.57-3.88,2.51-6.24l-1.95-4.37c-0.65-1.75-3.26-3.73-6.35-2.06L25.1,26.29c-2.57,1.41-2.91,3.97-2.91,4.63l0,3.97
			c0,0.67,0.35,3.23,2.91,4.63l29.1,16.43C57.28,57.63,59.9,55.64,60.55,53.9z"/>
		<path class="st1" d="M10.83,9H5.9C2.64,9,0,11.63,0,14.9v36.03c0,3.25,2.64,5.89,5.9,5.89h4.93c3.26,0,5.89-2.64,5.89-5.89V14.9
			C16.72,11.63,14.09,9,10.83,9z"/>
		<path class="st2" d="M86.59,12.44c-11.3,0-20.46,9.16-20.46,20.47c0,11.3,9.17,20.46,20.46,20.46c11.31,0,20.47-9.16,20.47-20.47
			C107.06,21.6,97.9,12.44,86.59,12.44z M86.59,40.99c-4.46,0-8.07-3.62-8.07-8.08c0-4.47,3.61-8.08,8.07-8.08
			c4.46,0,8.08,3.61,8.08,8.08C94.67,37.37,91.05,40.99,86.59,40.99z"/>
		<path class="st0" d="M112.64,53.9l-1.95-4.37c-1.06-2.36,0.06-5.18,2.51-6.24l20.72-10.31v-0.16l-20.72-10.3
			c-2.46-1.06-3.57-3.88-2.51-6.24l1.95-4.37c0.65-1.75,3.26-3.73,6.35-2.06l29.1,16.43c2.57,1.41,2.91,3.97,2.91,4.63l0,3.97
			c0,0.67-0.35,3.23-2.91,4.63l-29.1,16.43C115.9,57.63,113.29,55.64,112.64,53.9z"/>
		<path class="st1" d="M162.35,9h4.93c3.27,0,5.9,2.63,5.9,5.9v36.03c0,3.25-2.64,5.89-5.9,5.89h-4.93c-3.26,0-5.89-2.64-5.89-5.89
			V14.9C156.46,11.63,159.09,9,162.35,9z"/>
	</g>
	<rect x="189.91" y="9" class="st3" width="1.04" height="47.82"/>
	<g>
		<path class="st4" d="M223.84,46.29c-2.18-1.95-4.31-2.81-6.09-3.53c-2.06-0.83-3.54-1.43-4.75-3.43
			c-0.81-1.34-1.24-2.92-1.24-4.57V22.93c0-1.63-0.36-3.19-1.06-4.65c-0.11-0.23-0.23-0.45-0.35-0.67c2.5-0.88,4.26-2.37,5.88-3.72
			c2.26-1.9,4.04-3.39,7.61-3.39c3.56,0,5.43,1.57,7.41,3.22l0.2,0.17c1.61,1.36,3.38,2.84,5.88,3.72c-0.92,1.6-1.41,3.43-1.41,5.32
			v11.82c0,1.64-0.43,3.22-1.24,4.57c-1.15,1.91-2.45,2.5-4.65,3.39l-0.1,0.04C228.15,43.48,226.02,44.34,223.84,46.29z"/>
		<path class="st5" d="M232.65,21.3v11.56h-0.1l-2.31-2.32c-0.32-0.32-0.76-0.51-1.22-0.51h-2.22v2.22c0,0.46,0.18,0.9,0.51,1.22
			l2.32,2.32v0.1h-11.56v-0.1l2.32-2.32c0.32-0.32,0.51-0.76,0.51-1.22v-2.22h-2.23c-0.46,0-0.9,0.18-1.22,0.51l-2.31,2.32h-0.1
			V21.3h0.1l2.31,2.32c0.32,0.32,0.76,0.51,1.22,0.51h2.23v-2.22c0-0.46-0.18-0.9-0.51-1.22l-2.32-2.32v-0.1h11.56v0.1l-2.32,2.32
			c-0.32,0.32-0.51,0.76-0.51,1.22v2.22h2.22c0.46,0,0.9-0.18,1.22-0.51l2.31-2.32H232.65z"/>
		<g>
			<path class="st6" d="M219.36,27.35c0,0.18,0.01,0.33,0.04,0.45c0.02,0.12,0.07,0.21,0.13,0.28c0.06,0.07,0.15,0.11,0.27,0.14
				c0.11,0.03,0.26,0.04,0.44,0.04h0.19h0.34c0.09,0,0.19,0,0.3,0c0.12,0,0.25-0.01,0.42-0.01l-0.18,1c-0.14,0-0.25,0.01-0.35,0.01
				c-0.1,0-0.18,0-0.26,0h-0.33h-0.22c-0.37,0-0.68-0.03-0.94-0.1c-0.26-0.06-0.46-0.17-0.62-0.32c-0.16-0.15-0.28-0.34-0.35-0.59
				c-0.07-0.24-0.11-0.55-0.11-0.91v-0.54c0-0.34,0.04-0.64,0.11-0.88c0.07-0.24,0.19-0.44,0.35-0.59c0.16-0.15,0.37-0.26,0.62-0.33
				c0.25-0.07,0.56-0.1,0.93-0.1h0.19h0.35c0.09,0,0.2,0,0.32,0c0.12,0,0.27,0.01,0.43,0.01l-0.18,1c-0.19-0.01-0.36-0.01-0.49-0.01
				h-0.55c-0.18,0-0.32,0.01-0.44,0.04c-0.11,0.03-0.2,0.07-0.27,0.14c-0.07,0.07-0.11,0.16-0.13,0.28
				c-0.02,0.12-0.03,0.27-0.03,0.45V27.35z"/>
			<path class="st6" d="M222.08,24.91h2.21c0.46,0,0.8,0.09,1.01,0.27c0.21,0.18,0.31,0.45,0.31,0.81v0.08
				c0,0.42-0.17,0.71-0.51,0.88c0.2,0.08,0.36,0.2,0.47,0.36c0.11,0.16,0.16,0.37,0.16,0.63v0.11c0,0.43-0.13,0.73-0.38,0.92
				c-0.26,0.19-0.64,0.28-1.15,0.28h-2.13V24.91z M224.49,26.16c0-0.13-0.03-0.22-0.1-0.28c-0.06-0.05-0.18-0.08-0.33-0.08h-0.89
				v0.8h0.87c0.17,0,0.28-0.03,0.35-0.09c0.07-0.06,0.1-0.16,0.1-0.29V26.16z M223.17,28.36h0.93c0.19,0,0.32-0.03,0.4-0.09
				c0.08-0.06,0.12-0.17,0.12-0.33v-0.08c0-0.17-0.04-0.28-0.12-0.34c-0.08-0.06-0.22-0.09-0.41-0.09h-0.91V28.36z"/>
			<polygon class="st6" points="229.55,24.91 229.37,25.86 227.42,25.86 227.42,26.7 229.27,26.7 229.1,27.62 227.42,27.62 
				227.42,29.25 226.27,29.25 226.27,24.91 			"/>
		</g>
		
			<rect x="212.19" y="24.24" transform="matrix(-1.836970e-16 1 -1 -1.836970e-16 239.2687 -188.0593)" class="st7" width="2.95" height="2.73"/>
		
			<rect x="232.54" y="27.19" transform="matrix(6.123234e-17 -1 1 6.123234e-17 205.4597 262.5721)" class="st7" width="2.95" height="2.73"/>
		<path class="st8" d="M238.01,24.13h-2.1v-1.2c0-1.89,0.5-3.72,1.41-5.32c-2.5-0.88-4.26-2.37-5.88-3.72
			c-2.26-1.9-4.04-3.39-7.61-3.39c0,0,0,0,0,0v-2.1c-1.11,0-2.08,0.13-2.95,0.35v2.18c-1.81,0.58-3.12,1.68-4.66,2.97
			c-1.61,1.35-3.38,2.84-5.88,3.72c0.92,1.6,1.41,3.43,1.41,5.32v4.15h-2.1v2.95h2.1v4.72c0,1.64,0.43,3.22,1.24,4.57
			c1.21,2,2.69,2.6,4.75,3.43c1.78,0.72,3.91,1.58,6.09,3.53v2.99c0,0,0,0,0,0c0.99-1.15,1.98-1.98,2.95-2.63v-2.45
			c1.12-0.62,2.18-1.05,3.14-1.44c2.06-0.83,3.54-1.43,4.75-3.43c0.81-1.35,1.24-2.92,1.24-4.57v-7.67h2.1V24.13z M235.38,34.75
			c0,1.55-0.4,3.03-1.16,4.29c-1.11,1.85-2.46,2.39-4.49,3.21c-0.89,0.36-1.88,0.76-2.94,1.33v-7.69h-2.95v9.68
			c-2.12-1.79-4.2-2.63-5.89-3.32c-2.04-0.82-3.38-1.37-4.49-3.21c-0.76-1.26-1.16-2.75-1.16-4.29v-4.72h2.73v-2.95h-2.73v-4.15
			c0-1.75-0.41-3.48-1.19-5.04c2.29-0.93,3.97-2.34,5.46-3.6c1.48-1.25,2.7-2.26,4.31-2.81v6.78h2.95v-7.24c0,0,0,0,0,0
			c3.37,0,5.01,1.37,7.26,3.27c1.5,1.26,3.17,2.67,5.46,3.6c-0.78,1.55-1.19,3.28-1.19,5.04v1.2h-2.73v2.95h2.73V34.75z"/>
		<path class="st7" d="M226.79,11.48c-0.84-0.29-1.79-0.45-2.95-0.45c0,0,0,0,0,0v7.24h2.95V11.48z"/>
		<path class="st7" d="M220.89,43.58c0.95,0.51,1.94,1.14,2.95,1.99v-9.68h-2.95V43.58z"/>
		<g>
			<path class="st6" d="M223.84,10.49c3.57,0,5.35,1.5,7.61,3.39c1.61,1.35,3.38,2.84,5.88,3.72c-0.91,1.6-1.41,3.43-1.41,5.32v1.2
				h2.1v-1.2c0-2.68,1.23-5.08,3.15-6.66c-4.08-0.3-6.31-2.27-8.57-4.16c-2.26-1.89-4.55-3.71-8.75-3.71c0,0,0,0,0,0L223.84,10.49
				C223.84,10.49,223.84,10.49,223.84,10.49z"/>
			<path class="st6" d="M211.76,22.93c0-1.89-0.49-3.72-1.41-5.32c2.5-0.88,4.26-2.37,5.88-3.72c1.53-1.29,2.85-2.39,4.66-2.97V8.74
				c-5.78,1.45-7.28,7.01-14.37,7.53c0.96,0.79,1.75,1.79,2.3,2.92c0.55,1.13,0.85,2.4,0.85,3.74v4.15h2.1V22.93z"/>
			<path class="st6" d="M217.75,42.75c-2.06-0.83-3.54-1.43-4.75-3.43c-0.81-1.35-1.24-2.92-1.24-4.57v-4.72h-2.1v4.72
				c0,1.99,0.51,3.95,1.54,5.65c3.08,5.13,7.79,3.27,12.63,8.87v-2.99C221.66,44.33,219.53,43.47,217.75,42.75z"/>
			<path class="st6" d="M235.91,34.75c0,1.64-0.43,3.22-1.24,4.57c-1.2,2-2.69,2.6-4.75,3.43c-0.96,0.39-2.03,0.82-3.14,1.44v2.46
				c1.39-0.93,2.75-1.47,4.03-1.99c2.17-0.88,4.12-1.69,5.66-4.26c1.02-1.7,1.54-3.66,1.54-5.65v-7.67h-2.1V34.75z"/>
		</g>
	</g>
	<g>
		<path class="st1" d="M208.66,51.48h3.11c0.68,0,1.18,0.13,1.49,0.4c0.31,0.27,0.46,0.66,0.46,1.19v0.12c0,0.62-0.25,1.06-0.75,1.3
			c0.3,0.11,0.53,0.29,0.69,0.53c0.16,0.24,0.24,0.55,0.24,0.93v0.16c0,0.63-0.19,1.08-0.57,1.36c-0.38,0.28-0.95,0.42-1.7,0.42
			h-2.98V51.48z M212.06,53.33c0-0.19-0.05-0.33-0.14-0.41c-0.1-0.08-0.26-0.12-0.5-0.12h-1.14v1.18h1.12
			c0.25,0,0.42-0.04,0.52-0.13c0.1-0.09,0.15-0.23,0.15-0.43V53.33z M210.27,56.58h1.21c0.28,0,0.47-0.04,0.59-0.13
			c0.11-0.09,0.17-0.25,0.17-0.49v-0.12c0-0.25-0.06-0.42-0.18-0.51c-0.12-0.09-0.32-0.13-0.61-0.13h-1.18V56.58z"/>
		<path class="st1" d="M220.28,57.89h-1.87l-1.05-2.09h-0.86v2.09h-1.73v-6.41h2.68c0.46,0,0.85,0.04,1.17,0.11
			c0.32,0.08,0.59,0.19,0.79,0.36c0.2,0.16,0.35,0.37,0.45,0.63c0.09,0.26,0.14,0.57,0.14,0.95v0.22c0,0.46-0.09,0.83-0.28,1.11
			c-0.19,0.28-0.46,0.5-0.81,0.64L220.28,57.89z M218.27,53.62c-0.01-0.29-0.07-0.48-0.2-0.59c-0.13-0.1-0.36-0.15-0.69-0.15h-0.88
			v1.55h0.88c0.33,0,0.56-0.05,0.69-0.15c0.13-0.1,0.2-0.3,0.2-0.59V53.62z"/>
		<path class="st1" d="M224.92,56.49h-2.13l-0.43,1.4h-1.76l2.24-6.41h2.11l2.25,6.41h-1.84L224.92,56.49z M223.17,55.15h1.35
			l-0.68-2.17L223.17,55.15z"/>
		<rect x="233.41" y="51.48" class="st1" width="1.76" height="6.41"/>
		<polygon class="st1" points="238,51.48 238,56.42 240.91,56.42 240.42,57.89 236.25,57.89 236.25,51.48 		"/>
		<path class="st1" d="M227.46,53.34c0-0.3,0.04-0.57,0.13-0.8c0.09-0.23,0.23-0.43,0.43-0.59c0.2-0.16,0.45-0.28,0.77-0.36
			c0.31-0.08,0.69-0.11,1.14-0.11c0.16,0,2.11-0.01,2.38,0l-0.45,1.4c-0.49-0.01-0.7-0.01-1.04-0.01c-0.33,0-0.62,0-0.87,0
			c-0.28,0-0.47,0.03-0.56,0.09c-0.09,0.06-0.14,0.18-0.14,0.35c0,0.08,0.01,0.15,0.02,0.21c0.01,0.05,0.04,0.1,0.08,0.13
			c0.04,0.03,0.09,0.06,0.16,0.09c0.07,0.02,0.16,0.05,0.27,0.06l1.01,0.18c0.33,0.06,0.6,0.14,0.82,0.24
			c0.22,0.1,0.39,0.23,0.53,0.38c0.13,0.15,0.22,0.33,0.27,0.54c0.05,0.2,0.08,0.44,0.08,0.71v0.15c0,0.34-0.04,0.63-0.13,0.87
			c-0.09,0.24-0.23,0.44-0.44,0.6c-0.2,0.16-0.47,0.27-0.81,0.34c-0.33,0.07-0.75,0.09-1.24,0.09c-0.16,0-1.62,0.01-1.92,0
			l-0.49-1.4c0.47,0.01,1.14,0.02,1.49,0.02h0.94c0.3,0,0.5-0.03,0.6-0.09c0.1-0.06,0.15-0.18,0.15-0.38c0-0.09-0.01-0.17-0.02-0.23
			c-0.02-0.06-0.04-0.11-0.08-0.15c-0.04-0.04-0.1-0.07-0.17-0.1c-0.08-0.03-0.17-0.05-0.28-0.07l-0.8-0.14
			c-0.37-0.07-0.68-0.15-0.91-0.25c-0.23-0.1-0.42-0.22-0.55-0.37c-0.14-0.15-0.23-0.32-0.28-0.53c-0.05-0.2-0.08-0.45-0.08-0.73
			V53.34z"/>
	</g>
	<g>
		<polygon class="st9" points="225.58,5.44 224.93,3.39 226.59,2.14 226.59,2.05 224.51,2.05 223.86,0 223.79,0 223.15,2.05 
			221.07,2.05 221.07,2.14 222.72,3.39 222.08,5.44 222.2,5.44 223.82,4.23 225.46,5.44 		"/>
		<polygon class="st9" points="217.65,7.61 217,5.56 218.66,4.31 218.66,4.22 216.58,4.22 215.93,2.17 215.86,2.17 215.22,4.22 
			213.14,4.22 213.14,4.31 214.79,5.56 214.15,7.61 214.27,7.61 215.89,6.4 217.53,7.61 		"/>
		<polygon class="st9" points="230.03,7.61 230.68,5.56 229.02,4.31 229.02,4.22 231.1,4.22 231.75,2.17 231.82,2.17 232.46,4.22 
			234.54,4.22 234.54,4.31 232.89,5.56 233.53,7.61 233.41,7.61 231.79,6.4 230.15,7.61 		"/>
		<polygon class="st9" points="211.03,12.47 210.38,10.42 212.04,9.16 212.04,9.07 209.96,9.07 209.31,7.03 209.24,7.03 208.6,9.07 
			206.52,9.07 206.52,9.16 208.17,10.42 207.53,12.47 207.65,12.47 209.27,11.25 210.91,12.47 		"/>
		<polygon class="st9" points="240.13,12.47 239.48,10.42 241.14,9.16 241.14,9.07 239.06,9.07 238.41,7.03 238.34,7.03 237.7,9.07 
			235.62,9.07 235.62,9.16 237.27,10.42 236.63,12.47 236.75,12.47 238.37,11.25 240.01,12.47 		"/>
	</g>
	<g>
		<path d="M258.49,20.52h4c0.27,0,0.33-0.05,0.33-0.33v-0.86c0-0.28-0.06-0.33-0.33-0.33h-1.05v-2.83h0.84
			c1.67,0,3.62-0.92,3.62-3.54c0-2.98-2.41-2.98-3.7-2.98h-3.71c-0.27,0-0.33,0.05-0.33,0.33v0.86c0,0.29,0.06,0.33,0.33,0.33h0.81
			V19h-0.81c-0.27,0-0.33,0.05-0.33,0.33v0.86C258.16,20.47,258.22,20.52,258.49,20.52z M261.44,11.32h0.65
			c0.83,0,1.67,0.05,1.67,1.43c0,1.6-0.89,1.76-1.82,1.76h-0.49V11.32z"/>
		<path d="M267.82,18.35c0,1.49,0.92,2.44,2.38,2.44c1.17,0,1.73-0.63,2.05-0.95c0.06,0.29,0.09,0.68,0.48,0.68h1.98
			c0.19,0,0.22-0.05,0.22-0.22v-1.03c0-0.17-0.05-0.22-0.22-0.22h-0.68c-0.08-0.32-0.16-0.59-0.16-1.33v-2.74
			c0-1.65-0.75-2.55-2.73-2.55c-1.22,0-2.79,0.38-2.79,0.74c0,0.06,0.03,0.13,0.05,0.19l0.32,0.97c0.02,0.06,0.08,0.16,0.16,0.16
			c0.21,0,1.08-0.48,1.97-0.48c1,0,1.13,0.46,1.13,1.17v0.49C270.71,15.67,267.82,15.67,267.82,18.35z M271.96,18.71
			c-0.19,0.19-0.6,0.6-1.19,0.6c-0.6,0-1.05-0.46-1.05-1.08c0-1.4,1.84-1.27,2.24-1.27V18.71z"/>
		<path d="M276.33,14.16h1.13v3.57c0,1.46,0,3.06,2.05,3.06c1.08,0,2.24-0.3,2.24-0.59c0-0.05-0.02-0.1-0.03-0.14l-0.32-1.3
			c-0.02-0.06-0.06-0.1-0.13-0.1c-0.22,0-0.62,0.3-1.25,0.3c-0.54,0-0.54-0.46-0.54-0.97v-3.84h1.54c0.16,0,0.25-0.02,0.3-0.22
			l0.22-0.94c0.02-0.06,0.03-0.1,0.03-0.16c0-0.13-0.13-0.16-0.29-0.16h-1.81v-2.22c0-0.19-0.02-0.27-0.16-0.27
			c-0.09,0-0.16,0.02-0.21,0.02l-1.4,0.19c-0.22,0.03-0.25,0.08-0.25,0.29v2h-1.13c-0.19,0-0.22,0.05-0.22,0.22v1.03
			C276.11,14.11,276.14,14.16,276.33,14.16z"/>
		<path d="M288.54,12.41c-1.08,0-1.67,0.89-1.97,1.25c-0.11-0.4-0.17-0.98-0.59-0.98h-2.06c-0.19,0-0.22,0.05-0.22,0.22v1.03
			c0,0.17,0.03,0.22,0.22,0.22h0.76c0.08,0.33,0.16,0.56,0.16,1.35v3.54h-0.81c-0.19,0-0.22,0.05-0.22,0.22v1.03
			c0,0.17,0.03,0.22,0.22,0.22h3.68c0.19,0,0.22-0.05,0.22-0.22v-1.03c0-0.17-0.03-0.22-0.22-0.22h-0.86V15
			c0.21-0.22,0.71-0.76,1.21-0.76c0.37,0,0.65,0.17,0.75,0.17c0.06,0,0.11-0.09,0.13-0.14l0.49-1.33c0.02-0.03,0.03-0.1,0.03-0.16
			C289.46,12.57,289,12.41,288.54,12.41z"/>
		<path d="M294.41,20.79c2.14,0,3.44-1.63,3.44-4.19c0-2.55-1.32-4.19-3.44-4.19c-2.14,0-3.44,1.63-3.44,4.19
			C290.97,19.16,292.27,20.79,294.41,20.79z M294.41,14c1.09,0,1.3,1.13,1.3,2.6c0,1.49-0.19,2.6-1.3,2.6c-1.11,0-1.3-1.13-1.3-2.6
			C293.11,15.13,293.32,14,294.41,14z"/>
		<path d="M303.64,20.79c0.95,0,2.22-0.32,2.22-0.65c0-0.05-0.03-0.11-0.05-0.16l-0.41-1.05c-0.03-0.05-0.06-0.08-0.11-0.08
			c-0.16,0-0.6,0.35-1.4,0.35c-1.22,0-1.63-0.81-1.63-2.55c0-1.83,0.48-2.65,1.59-2.65c0.13,0,0.25,0.02,0.38,0.06v1.17
			c0,0.19,0.05,0.22,0.22,0.22h1.14c0.18,0,0.22-0.03,0.22-0.22V13.1c0-0.44-1.19-0.68-1.95-0.68c-2.4,0-3.74,1.65-3.74,4.35
			C300.12,19.44,301.43,20.79,303.64,20.79z"/>
		<path d="M310.12,11.65c0.71,0,1.3-0.59,1.3-1.32c0-0.73-0.59-1.3-1.3-1.3c-0.73,0-1.32,0.57-1.32,1.3
			C308.8,11.06,309.39,11.65,310.12,11.65z"/>
		<path d="M308.09,14.16h1.03v4.89h-1.02c-0.19,0-0.22,0.05-0.22,0.22v1.03c0,0.17,0.03,0.22,0.22,0.22h4.05
			c0.19,0,0.22-0.05,0.22-0.22v-1.03c0-0.17-0.03-0.22-0.22-0.22h-1.02v-6.14c0-0.18-0.03-0.22-0.22-0.22h-2.82
			c-0.19,0-0.22,0.05-0.22,0.22v1.03C307.87,14.11,307.9,14.16,308.09,14.16z"/>
		<path d="M314.58,14.16h0.76c0.1,0.33,0.16,0.56,0.16,1.35v3.54h-0.81c-0.19,0-0.22,0.05-0.22,0.22v1.03
			c0,0.17,0.03,0.22,0.22,0.22h3.63c0.19,0,0.22-0.05,0.22-0.22v-1.03c0-0.17-0.03-0.22-0.22-0.22h-0.81v-4.32
			c0.21-0.19,0.7-0.65,1.36-0.65c0.81,0,0.89,0.73,0.89,1.33v4.89c0,0.17,0.03,0.22,0.22,0.22h2.6c0.19,0,0.22-0.05,0.22-0.22v-1.03
			c0-0.17-0.03-0.22-0.22-0.22h-0.81v-4.13c0-1.38-0.38-2.51-2.06-2.51c-1.25,0-1.95,0.68-2.43,1.09c-0.11-0.35-0.13-0.82-0.51-0.82
			h-2.21c-0.19,0-0.22,0.05-0.22,0.22v1.03C314.36,14.1,314.39,14.16,314.58,14.16z"/>
		<path d="M324.91,18.35c0,1.49,0.92,2.44,2.38,2.44c1.17,0,1.73-0.63,2.05-0.95c0.06,0.29,0.09,0.68,0.48,0.68h1.98
			c0.19,0,0.22-0.05,0.22-0.22v-1.03c0-0.17-0.05-0.22-0.22-0.22h-0.68c-0.08-0.32-0.16-0.59-0.16-1.33v-2.74
			c0-1.65-0.75-2.55-2.73-2.55c-1.22,0-2.79,0.38-2.79,0.74c0,0.06,0.03,0.13,0.05,0.19l0.32,0.97c0.02,0.06,0.08,0.16,0.16,0.16
			c0.21,0,1.08-0.48,1.97-0.48c1,0,1.13,0.46,1.13,1.17v0.49C327.8,15.67,324.91,15.67,324.91,18.35z M329.05,18.71
			c-0.19,0.19-0.6,0.6-1.19,0.6c-0.6,0-1.05-0.46-1.05-1.08c0-1.4,1.84-1.27,2.24-1.27V18.71z"/>
		<path d="M339.32,20.52h2.13c0.19,0,0.22-0.05,0.22-0.22v-1.03c0-0.17-0.03-0.22-0.22-0.22h-0.7c-0.09-0.3-0.16-0.57-0.16-1.33
			V9.37c0-0.17-0.03-0.22-0.22-0.22h-2.6c-0.19,0-0.22,0.05-0.22,0.22v1.03c0,0.18,0.03,0.22,0.22,0.22h0.81v2.27
			c-0.29-0.17-0.68-0.48-1.62-0.48c-1.97,0-3.05,1.51-3.05,4.51c0,2.41,0.9,3.87,2.71,3.87c1.21,0,1.94-0.62,2.24-0.86
			C339.04,20.43,338.97,20.52,339.32,20.52z M338.58,18.65c-0.21,0.21-0.52,0.56-1.32,0.56c-1.03,0-1.33-0.76-1.33-2.55
			c0-1.76,0.24-2.65,1.43-2.65c0.75,0,1.06,0.24,1.22,0.32V18.65z"/>
		<path d="M347.03,20.79c2.14,0,3.44-1.63,3.44-4.19c0-2.55-1.32-4.19-3.44-4.19c-2.14,0-3.44,1.63-3.44,4.19
			C343.59,19.16,344.89,20.79,347.03,20.79z M347.03,14c1.09,0,1.3,1.13,1.3,2.6c0,1.49-0.19,2.6-1.3,2.6c-1.11,0-1.3-1.13-1.3-2.6
			C345.73,15.13,345.94,14,347.03,14z"/>
		<path d="M358.29,12.78c0-0.21-0.46-0.36-0.92-0.36c-1.08,0-1.67,0.89-1.97,1.25c-0.11-0.4-0.17-0.98-0.59-0.98h-2.06
			c-0.19,0-0.22,0.05-0.22,0.22v1.03c0,0.17,0.03,0.22,0.22,0.22h0.76c0.08,0.33,0.16,0.56,0.16,1.35v3.54h-0.81
			c-0.19,0-0.22,0.05-0.22,0.22v1.03c0,0.17,0.03,0.22,0.22,0.22h3.68c0.19,0,0.22-0.05,0.22-0.22v-1.03c0-0.17-0.03-0.22-0.22-0.22
			h-0.86V15c0.21-0.22,0.71-0.76,1.21-0.76c0.37,0,0.65,0.17,0.75,0.17c0.06,0,0.11-0.09,0.13-0.14l0.49-1.33
			C358.27,12.91,358.29,12.84,358.29,12.78z"/>
		<path d="M359.95,18.35c0,1.49,0.92,2.44,2.38,2.44c1.17,0,1.73-0.63,2.05-0.95c0.06,0.29,0.09,0.68,0.48,0.68h1.98
			c0.19,0,0.22-0.05,0.22-0.22v-1.03c0-0.17-0.05-0.22-0.22-0.22h-0.68c-0.08-0.32-0.16-0.59-0.16-1.33v-2.74
			c0-1.65-0.75-2.55-2.73-2.55c-1.22,0-2.79,0.38-2.79,0.74c0,0.06,0.03,0.13,0.05,0.19l0.32,0.97c0.02,0.06,0.08,0.16,0.16,0.16
			c0.21,0,1.08-0.48,1.97-0.48c1,0,1.13,0.46,1.13,1.17v0.49C362.84,15.67,359.95,15.67,359.95,18.35z M364.09,18.71
			c-0.19,0.19-0.6,0.6-1.19,0.6c-0.6,0-1.05-0.46-1.05-1.08c0-1.4,1.84-1.27,2.24-1.27V18.71z"/>
		<path d="M262.15,27.37c-2.44,0-3.95,1.86-3.95,5.71c0,3.84,1.49,5.7,3.95,5.7c2.46,0,3.95-1.86,3.95-5.7
			S264.59,27.37,262.15,27.37z M262.15,37.11c-1.19,0-1.7-1.56-1.7-4.03c0-2.48,0.51-4.05,1.7-4.05s1.7,1.55,1.7,4.05
			C263.84,35.56,263.34,37.11,262.15,37.11z"/>
		<path d="M272.73,28.73c0.6,0,0.94,0.27,1.11,0.27c0.06,0,0.13-0.09,0.14-0.16l0.29-1.11c0.02-0.05,0.03-0.1,0.03-0.14
			c0-0.32-1.22-0.57-1.94-0.57c-1.9,0-2.54,1.25-2.54,3v0.65h-1.13c-0.27,0-0.33,0.05-0.33,0.33v0.81c0,0.29,0.06,0.33,0.33,0.33
			h1.13v4.89h-0.97c-0.27,0-0.33,0.05-0.33,0.33v0.81c0,0.29,0.06,0.33,0.33,0.33h4.06c0.27,0,0.33-0.05,0.33-0.33v-0.81
			c0-0.29-0.06-0.33-0.33-0.33h-1.08v-4.89h1.52c0.16,0,0.25-0.02,0.3-0.22l0.22-0.94c0.02-0.06,0.03-0.1,0.03-0.16
			c0-0.13-0.13-0.16-0.27-0.16h-1.81v-0.65C271.84,29.26,271.87,28.73,272.73,28.73z"/>
		<path d="M276.02,32.15h1.03v4.89h-1.02c-0.19,0-0.22,0.05-0.22,0.22v1.03c0,0.17,0.03,0.22,0.22,0.22h4.05
			c0.19,0,0.22-0.05,0.22-0.22v-1.03c0-0.17-0.03-0.22-0.22-0.22h-1.02v-6.14c0-0.18-0.03-0.22-0.22-0.22h-2.82
			c-0.19,0-0.22,0.05-0.22,0.22v1.03C275.8,32.1,275.83,32.15,276.02,32.15z"/>
		<path d="M276.73,28.32c0,0.73,0.59,1.32,1.32,1.32c0.71,0,1.3-0.59,1.3-1.32c0-0.73-0.59-1.3-1.3-1.3
			C277.32,27.02,276.73,27.59,276.73,28.32z"/>
		<path d="M287.47,36.92c-0.03-0.05-0.06-0.08-0.11-0.08c-0.16,0-0.6,0.35-1.4,0.35c-1.22,0-1.63-0.81-1.63-2.55
			c0-1.82,0.48-2.65,1.59-2.65c0.13,0,0.25,0.02,0.38,0.06v1.17c0,0.19,0.05,0.22,0.22,0.22h1.14c0.18,0,0.22-0.03,0.22-0.22v-2.14
			c0-0.44-1.19-0.68-1.95-0.68c-2.4,0-3.74,1.65-3.74,4.35c0,2.68,1.32,4.03,3.52,4.03c0.95,0,2.22-0.32,2.22-0.65
			c0-0.05-0.03-0.11-0.05-0.16L287.47,36.92z"/>
		<path d="M292.2,29.64c0.71,0,1.3-0.59,1.3-1.32c0-0.73-0.59-1.3-1.3-1.3c-0.73,0-1.32,0.57-1.32,1.3
			C290.88,29.05,291.47,29.64,292.2,29.64z"/>
		<path d="M294.45,38.29v-1.03c0-0.17-0.03-0.22-0.22-0.22h-1.02v-6.14c0-0.18-0.03-0.22-0.22-0.22h-2.82
			c-0.19,0-0.22,0.05-0.22,0.22v1.03c0,0.17,0.03,0.22,0.22,0.22h1.03v4.89h-1.02c-0.19,0-0.22,0.05-0.22,0.22v1.03
			c0,0.17,0.03,0.22,0.22,0.22h4.05C294.42,38.51,294.45,38.46,294.45,38.29z"/>
		<path d="M300.92,37.83c0.06,0.29,0.09,0.68,0.48,0.68h1.98c0.19,0,0.22-0.05,0.22-0.22v-1.03c0-0.17-0.05-0.22-0.22-0.22h-0.68
			c-0.08-0.32-0.16-0.59-0.16-1.33v-2.74c0-1.65-0.75-2.55-2.73-2.55c-1.22,0-2.79,0.38-2.79,0.75c0,0.06,0.03,0.13,0.05,0.19
			l0.32,0.97c0.02,0.06,0.08,0.16,0.16,0.16c0.21,0,1.08-0.48,1.97-0.48c1,0,1.13,0.46,1.13,1.17v0.49c-1.25,0-4.14,0-4.14,2.68
			c0,1.49,0.92,2.44,2.38,2.44C300.05,38.78,300.61,38.14,300.92,37.83z M300.64,36.7c-0.19,0.19-0.6,0.6-1.19,0.6
			c-0.6,0-1.05-0.46-1.05-1.08c0-1.4,1.84-1.27,2.24-1.27V36.7z"/>
		<path d="M309.4,38.33c0-0.05-0.02-0.09-0.03-0.13l-0.32-1.3c-0.02-0.06-0.06-0.1-0.13-0.1c-0.1,0-0.3,0.14-0.62,0.14
			c-0.44,0-0.44-0.44-0.44-0.95v-8.65c0-0.17-0.03-0.22-0.22-0.22h-2.59c-0.19,0-0.22,0.05-0.22,0.22v1.03
			c0,0.17,0.03,0.22,0.22,0.22h0.79v7.11c0,1.46,0,3.06,1.95,3.06C308.56,38.78,309.4,38.56,309.4,38.33z"/>
		<path d="M324.21,37.03h-0.7c-0.09-0.3-0.16-0.57-0.16-1.33v-8.35c0-0.17-0.03-0.22-0.22-0.22h-2.6c-0.19,0-0.22,0.05-0.22,0.22
			v1.03c0,0.17,0.03,0.22,0.22,0.22h0.81v2.27c-0.29-0.17-0.68-0.48-1.62-0.48c-1.97,0-3.05,1.51-3.05,4.51
			c0,2.41,0.9,3.87,2.71,3.87c1.21,0,1.94-0.62,2.24-0.86c0.17,0.49,0.11,0.59,0.46,0.59h2.13c0.19,0,0.22-0.05,0.22-0.22v-1.03
			C324.43,37.08,324.4,37.03,324.21,37.03z M321.33,36.63c-0.21,0.21-0.52,0.56-1.32,0.56c-1.03,0-1.33-0.76-1.33-2.55
			c0-1.76,0.24-2.65,1.43-2.65c0.75,0,1.06,0.24,1.22,0.32V36.63z"/>
		<path d="M329.84,30.4c-1.22,0-2.79,0.38-2.79,0.75c0,0.06,0.03,0.13,0.05,0.19l0.32,0.97c0.02,0.06,0.08,0.16,0.16,0.16
			c0.21,0,1.08-0.48,1.97-0.48c1,0,1.13,0.46,1.13,1.17v0.49c-1.25,0-4.14,0-4.14,2.68c0,1.49,0.92,2.44,2.38,2.44
			c1.17,0,1.73-0.63,2.05-0.95c0.06,0.29,0.09,0.68,0.48,0.68h1.98c0.19,0,0.22-0.05,0.22-0.22v-1.03c0-0.17-0.05-0.22-0.22-0.22
			h-0.68c-0.08-0.32-0.16-0.59-0.16-1.33v-2.74C332.57,31.3,331.82,30.4,329.84,30.4z M330.66,36.7c-0.19,0.19-0.6,0.6-1.19,0.6
			c-0.6,0-1.05-0.46-1.05-1.08c0-1.4,1.84-1.27,2.24-1.27V36.7z"/>
		<path d="M347.87,35.43c0-1.21-0.56-2.05-1.36-2.65c-1.4-1.03-3.25-1.25-3.25-2.46c0-0.95,0.76-1.24,1.49-1.24
			c0.52,0,0.89,0.14,1.06,0.21v1.27c0,0.22,0.05,0.27,0.27,0.27h1.17c0.21,0,0.27-0.05,0.27-0.27v-2.14c0-0.63-1.73-1.05-2.84-1.05
			c-1.84,0-3.49,0.95-3.49,3.24c0,1.32,0.54,1.95,1.38,2.46c1.62,0.98,3.24,1.13,3.24,2.54c0,0.98-0.54,1.46-1.43,1.46
			c-0.68,0-1.25-0.24-1.49-0.32V35.3c0-0.22-0.05-0.27-0.27-0.27h-1.17c-0.22,0-0.27,0.06-0.27,0.27v2.4c0,0.7,2.08,1.08,3.27,1.08
			C346.44,38.78,347.87,37.44,347.87,35.43z"/>
		<path d="M356.51,37.84c0-0.06-0.03-0.13-0.05-0.17l-0.4-0.95c-0.03-0.06-0.1-0.13-0.17-0.13c-0.22,0-0.87,0.52-2.02,0.52
			c-1.49,0-1.75-1.1-1.75-1.98h4.27c0.3,0,0.37-0.1,0.37-0.4c0-1.92-0.48-4.33-3.17-4.33c-2.13,0-3.48,1.75-3.48,4.27
			c0,2.92,1.46,4.11,3.55,4.11C354.93,38.78,356.51,38.25,356.51,37.84z M353.48,31.88c1.09,0,1.14,1.13,1.14,1.78h-2.49
			C352.18,33.21,352.24,31.88,353.48,31.88z"/>
		<path d="M358.53,28.61h0.79v7.11c0,1.46,0,3.06,1.95,3.06c0.76,0,1.6-0.22,1.6-0.44c0-0.05-0.02-0.09-0.03-0.13l-0.32-1.3
			c-0.02-0.06-0.06-0.1-0.13-0.1c-0.1,0-0.3,0.14-0.62,0.14c-0.44,0-0.44-0.44-0.44-0.95v-8.65c0-0.17-0.03-0.22-0.22-0.22h-2.59
			c-0.19,0-0.22,0.05-0.22,0.22v1.03C358.31,28.56,358.34,28.61,358.53,28.61z"/>
		<path d="M364.52,34.67c0,2.92,1.46,4.11,3.55,4.11c1.25,0,2.84-0.52,2.84-0.94c0-0.06-0.03-0.13-0.05-0.17l-0.4-0.95
			c-0.03-0.06-0.1-0.13-0.17-0.13c-0.22,0-0.87,0.52-2.02,0.52c-1.49,0-1.75-1.1-1.75-1.98h4.27c0.3,0,0.37-0.1,0.37-0.4
			c0-1.92-0.48-4.33-3.17-4.33C365.87,30.4,364.52,32.15,364.52,34.67z M367.88,31.88c1.09,0,1.14,1.13,1.14,1.78h-2.49
			C366.58,33.21,366.64,31.88,367.88,31.88z"/>
		<path d="M378.23,40.48c0-0.87-0.71-1.14-1.13-1.14l0.05-0.56c0.7,0,1.95-0.33,1.95-0.65c0-0.05-0.03-0.11-0.05-0.16l-0.41-1.05
			c-0.03-0.05-0.06-0.08-0.11-0.08c-0.16,0-0.6,0.35-1.4,0.35c-1.22,0-1.63-0.81-1.63-2.55c0-1.82,0.48-2.65,1.59-2.65
			c0.13,0,0.25,0.02,0.38,0.06v1.17c0,0.19,0.05,0.22,0.22,0.22h1.14c0.18,0,0.22-0.03,0.22-0.22v-2.14c0-0.44-1.19-0.68-1.95-0.68
			c-2.4,0-3.74,1.65-3.74,4.35c0,2.44,1.24,3.7,2.52,3.92l-0.11,1.16v0.11c0,0.13,0.06,0.17,0.3,0.17c0.25,0,0.68,0.05,0.68,0.37
			c0,0.21-0.21,0.37-0.51,0.37c-0.37,0-0.59-0.11-0.67-0.11c-0.08,0-0.08,0.05-0.09,0.13l-0.11,0.54c-0.02,0.06-0.03,0.14-0.03,0.19
			c0,0.21,0.62,0.29,1.16,0.29C377.6,41.87,378.23,41.3,378.23,40.48z"/>
		<path d="M382.04,28.76l0.75,0.38c0.05,0.03,0.08,0.05,0.14,0.05c0.16,0,0.24-0.57,0.71-0.57c0.44,0,0.76,0.56,1.52,0.56
			c1.14,0,1.67-1.41,1.67-1.49c0-0.06-0.06-0.11-0.11-0.14l-0.75-0.38c-0.03-0.02-0.08-0.03-0.11-0.03c-0.19,0-0.25,0.57-0.68,0.57
			c-0.43,0-0.82-0.55-1.62-0.55c-1.17,0-1.63,1.44-1.63,1.49C381.93,28.68,381.98,28.73,382.04,28.76z"/>
		<path d="M387.93,37.03h-0.68c-0.08-0.32-0.16-0.59-0.16-1.33v-2.74c0-1.65-0.75-2.55-2.73-2.55c-1.22,0-2.79,0.38-2.79,0.75
			c0,0.06,0.03,0.13,0.05,0.19l0.32,0.97c0.02,0.06,0.08,0.16,0.16,0.16c0.21,0,1.08-0.48,1.97-0.48c1,0,1.13,0.46,1.13,1.17v0.49
			c-1.25,0-4.14,0-4.14,2.68c0,1.49,0.92,2.44,2.38,2.44c1.17,0,1.73-0.63,2.05-0.95c0.06,0.29,0.09,0.68,0.48,0.68h1.98
			c0.19,0,0.22-0.05,0.22-0.22v-1.03C388.15,37.08,388.1,37.03,387.93,37.03z M385.18,36.7c-0.19,0.19-0.6,0.6-1.19,0.6
			c-0.6,0-1.05-0.46-1.05-1.08c0-1.4,1.84-1.27,2.24-1.27V36.7z"/>
		<path d="M393.41,30.4c-2.14,0-3.44,1.63-3.44,4.19c0,2.55,1.3,4.19,3.44,4.19c2.14,0,3.44-1.63,3.44-4.19
			C396.85,32.03,395.53,30.4,393.41,30.4z M393.41,37.19c-1.11,0-1.3-1.13-1.3-2.6s0.21-2.6,1.3-2.6c1.09,0,1.3,1.13,1.3,2.6
			C394.71,36.08,394.52,37.19,393.41,37.19z"/>
		<path d="M265.65,55.02h-0.7c-0.09-0.3-0.16-0.57-0.16-1.33v-8.35c0-0.18-0.03-0.22-0.22-0.22h-2.6c-0.19,0-0.22,0.05-0.22,0.22
			v1.03c0,0.18,0.03,0.22,0.22,0.22h0.81v2.27c-0.29-0.17-0.68-0.48-1.62-0.48c-1.97,0-3.05,1.51-3.05,4.51
			c0,2.41,0.9,3.87,2.71,3.87c1.21,0,1.94-0.62,2.24-0.86c0.17,0.49,0.11,0.59,0.46,0.59h2.13c0.19,0,0.22-0.05,0.22-0.22v-1.03
			C265.87,55.07,265.84,55.02,265.65,55.02z M262.78,54.62c-0.21,0.21-0.52,0.56-1.32,0.56c-1.03,0-1.33-0.76-1.33-2.55
			c0-1.76,0.24-2.65,1.43-2.65c0.75,0,1.06,0.24,1.22,0.32V54.62z"/>
		<path d="M282.36,52.27c-1.13-0.75-2.55-0.68-2.55-1.57c0-0.57,0.44-0.79,1.05-0.79c0.21,0,0.41,0.03,0.6,0.05v0.79
			c0,0.18,0.05,0.22,0.22,0.22h1.1c0.17,0,0.21-0.05,0.21-0.22v-1.63c0-0.51-1.37-0.73-2.19-0.73c-1.71,0-2.81,1.14-2.81,2.59
			c0,0.92,0.46,1.48,0.94,1.79c1.05,0.7,2.6,0.7,2.6,1.62c0,0.57-0.44,0.79-0.97,0.79c-0.51,0-0.9-0.14-1.13-0.22v-0.78
			c0-0.22-0.02-0.29-0.22-0.29h-1.08c-0.17,0-0.22,0.05-0.22,0.22v1.73c0,0.52,1.87,0.92,2.81,0.92c1.68,0,2.71-1.09,2.71-2.55
			C283.42,53.29,282.98,52.69,282.36,52.27z"/>
		<path d="M296.31,50.8c0.6-0.3,1.62-0.81,1.62-2.4c0-2.55-2.16-2.78-3.7-2.78h-3.62c-0.27,0-0.33,0.05-0.33,0.33v0.86
			c0,0.29,0.06,0.33,0.33,0.33h0.81v7.82h-0.81c-0.27,0-0.33,0.05-0.33,0.33v0.86c0,0.27,0.06,0.33,0.33,0.33h3.74
			c2.05,0,3.94-0.43,3.94-3.08C298.29,51.59,297.05,51,296.31,50.8z M293.56,47.29h0.67c0.87,0,1.56,0.33,1.56,1.33
			c0,1.25-0.79,1.49-1.73,1.49h-0.49V47.29z M294.13,54.83h-0.57v-3.05h0.6c1.06,0,1.98,0.17,1.98,1.51
			C296.15,54.64,295.23,54.83,294.13,54.83z"/>
		<path d="M305.31,48.39c-1.08,0-1.67,0.89-1.97,1.25c-0.11-0.4-0.17-0.98-0.59-0.98h-2.06c-0.19,0-0.22,0.05-0.22,0.22v1.03
			c0,0.17,0.03,0.22,0.22,0.22h0.76c0.08,0.33,0.16,0.56,0.16,1.35v3.54h-0.81c-0.19,0-0.22,0.05-0.22,0.22v1.03
			c0,0.17,0.03,0.22,0.22,0.22h3.68c0.19,0,0.22-0.05,0.22-0.22v-1.03c0-0.17-0.03-0.22-0.22-0.22h-0.86v-4.05
			c0.21-0.22,0.71-0.76,1.21-0.76c0.37,0,0.65,0.17,0.75,0.17c0.06,0,0.11-0.09,0.13-0.14l0.49-1.33c0.02-0.03,0.03-0.09,0.03-0.16
			C306.23,48.54,305.77,48.39,305.31,48.39z"/>
		<path d="M314.78,55.02h-0.68c-0.08-0.32-0.16-0.59-0.16-1.33v-2.75c0-1.65-0.75-2.55-2.73-2.55c-1.22,0-2.79,0.38-2.79,0.75
			c0,0.06,0.03,0.13,0.05,0.19l0.32,0.97c0.02,0.06,0.08,0.16,0.16,0.16c0.21,0,1.08-0.48,1.97-0.48c1,0,1.13,0.46,1.13,1.17v0.49
			c-1.25,0-4.14,0-4.14,2.68c0,1.49,0.92,2.44,2.38,2.44c1.17,0,1.73-0.63,2.05-0.95c0.06,0.29,0.09,0.68,0.48,0.68h1.98
			c0.19,0,0.22-0.05,0.22-0.22v-1.03C315,55.07,314.95,55.02,314.78,55.02z M312.03,54.68c-0.19,0.19-0.6,0.6-1.19,0.6
			c-0.6,0-1.05-0.46-1.05-1.08c0-1.4,1.84-1.27,2.24-1.27V54.68z"/>
		<path d="M321.5,52.27c-1.13-0.75-2.55-0.68-2.55-1.57c0-0.57,0.44-0.79,1.05-0.79c0.21,0,0.41,0.03,0.6,0.05v0.79
			c0,0.18,0.05,0.22,0.22,0.22h1.1c0.17,0,0.21-0.05,0.21-0.22v-1.63c0-0.51-1.37-0.73-2.19-0.73c-1.71,0-2.81,1.14-2.81,2.59
			c0,0.92,0.46,1.48,0.94,1.79c1.05,0.7,2.6,0.7,2.6,1.62c0,0.57-0.44,0.79-0.97,0.79c-0.51,0-0.9-0.14-1.13-0.22v-0.78
			c0-0.22-0.02-0.29-0.22-0.29h-1.08c-0.17,0-0.22,0.05-0.22,0.22v1.73c0,0.52,1.87,0.92,2.81,0.92c1.68,0,2.71-1.09,2.71-2.55
			C322.56,53.29,322.12,52.69,321.5,52.27z"/>
		<path d="M325.55,46.31c0,0.73,0.59,1.32,1.32,1.32c0.71,0,1.3-0.59,1.3-1.32c0-0.73-0.59-1.3-1.3-1.3
			C326.14,45.01,325.55,45.58,325.55,46.31z"/>
		<path d="M328.9,55.02h-1.02v-6.14c0-0.17-0.03-0.22-0.22-0.22h-2.82c-0.19,0-0.22,0.05-0.22,0.22v1.03c0,0.17,0.03,0.22,0.22,0.22
			h1.03v4.89h-1.02c-0.19,0-0.22,0.05-0.22,0.22v1.03c0,0.17,0.03,0.22,0.22,0.22h4.05c0.19,0,0.22-0.05,0.22-0.22v-1.03
			C329.12,55.07,329.09,55.02,328.9,55.02z"/>
		<path d="M334.68,54.89c-0.02-0.06-0.06-0.1-0.13-0.1c-0.1,0-0.3,0.14-0.62,0.14c-0.44,0-0.44-0.44-0.44-0.95v-8.65
			c0-0.18-0.03-0.22-0.22-0.22h-2.59c-0.19,0-0.22,0.05-0.22,0.22v1.03c0,0.18,0.03,0.22,0.22,0.22h0.79v7.11
			c0,1.46,0,3.06,1.95,3.06c0.76,0,1.6-0.22,1.6-0.44c0-0.05-0.02-0.1-0.03-0.13L334.68,54.89z"/>
		<path d="M340.14,48.39c-2.13,0-3.48,1.74-3.48,4.27c0,2.92,1.46,4.11,3.55,4.11c1.25,0,2.84-0.52,2.84-0.94
			c0-0.06-0.03-0.13-0.05-0.17l-0.4-0.95c-0.03-0.06-0.1-0.13-0.17-0.13c-0.22,0-0.87,0.52-2.02,0.52c-1.49,0-1.75-1.09-1.75-1.98
			h4.27c0.3,0,0.37-0.1,0.37-0.4C343.31,50.8,342.84,48.39,340.14,48.39z M338.68,51.64c0.05-0.44,0.11-1.78,1.35-1.78
			c1.09,0,1.14,1.13,1.14,1.78H338.68z"/>
		<path d="M346.22,46.31c0,0.73,0.59,1.32,1.32,1.32c0.71,0,1.3-0.59,1.3-1.32c0-0.73-0.59-1.3-1.3-1.3
			C346.81,45.01,346.22,45.58,346.22,46.31z"/>
		<path d="M349.57,55.02h-1.02v-6.14c0-0.17-0.03-0.22-0.22-0.22h-2.82c-0.19,0-0.22,0.05-0.22,0.22v1.03
			c0,0.17,0.03,0.22,0.22,0.22h1.03v4.89h-1.02c-0.19,0-0.22,0.05-0.22,0.22v1.03c0,0.17,0.03,0.22,0.22,0.22h4.05
			c0.19,0,0.22-0.05,0.22-0.22v-1.03C349.79,55.07,349.76,55.02,349.57,55.02z"/>
		<path d="M356.66,48.39c-1.08,0-1.67,0.89-1.97,1.25c-0.11-0.4-0.17-0.98-0.59-0.98h-2.06c-0.19,0-0.22,0.05-0.22,0.22v1.03
			c0,0.17,0.03,0.22,0.22,0.22h0.76c0.08,0.33,0.16,0.56,0.16,1.35v3.54h-0.81c-0.19,0-0.22,0.05-0.22,0.22v1.03
			c0,0.17,0.03,0.22,0.22,0.22h3.68c0.19,0,0.22-0.05,0.22-0.22v-1.03c0-0.17-0.03-0.22-0.22-0.22h-0.86v-4.05
			c0.21-0.22,0.71-0.76,1.21-0.76c0.37,0,0.65,0.17,0.75,0.17c0.06,0,0.11-0.09,0.13-0.14l0.49-1.33c0.02-0.03,0.03-0.09,0.03-0.16
			C357.58,48.54,357.12,48.39,356.66,48.39z"/>
		<path d="M373.38,52.27c-1.13-0.75-2.55-0.68-2.55-1.57c0-0.57,0.44-0.79,1.05-0.79c0.21,0,0.41,0.03,0.6,0.05v0.79
			c0,0.18,0.05,0.22,0.22,0.22h1.1c0.17,0,0.21-0.05,0.21-0.22v-1.63c0-0.51-1.37-0.73-2.19-0.73c-1.71,0-2.81,1.14-2.81,2.59
			c0,0.92,0.46,1.48,0.94,1.79c1.05,0.7,2.6,0.7,2.6,1.62c0,0.57-0.44,0.79-0.97,0.79c-0.51,0-0.9-0.14-1.13-0.22v-0.78
			c0-0.22-0.02-0.29-0.22-0.29h-1.08c-0.17,0-0.22,0.05-0.22,0.22v1.73c0,0.52,1.87,0.92,2.81,0.92c1.68,0,2.71-1.09,2.71-2.55
			C374.45,53.29,374,52.69,373.38,52.27z"/>
		<path d="M377.72,53.75c-0.81,0-1.51,0.67-1.51,1.51c0,0.84,0.7,1.51,1.51,1.51c0.82,0,1.51-0.67,1.51-1.51
			C379.22,54.41,378.54,53.75,377.72,53.75z"/>
		<path d="M275.99,48.11c-0.38-0.32-0.84-0.57-1.36-0.74c-0.53-0.17-1.11-0.26-1.76-0.26c-0.81,0-1.57,0.14-2.28,0.42
			c-0.71,0.28-1.32,0.68-1.85,1.19c-0.53,0.51-0.95,1.11-1.25,1.82c-0.31,0.7-0.46,1.48-0.46,2.32c0,0.76,0.13,1.42,0.38,1.98
			c0.25,0.56,0.6,1.01,1.04,1.38c0.44,0.36,0.96,0.63,1.56,0.81c0.6,0.18,1.25,0.27,1.96,0.27c0.35,0,0.71-0.02,1.08-0.07
			c0.37-0.04,0.72-0.1,1.06-0.18c0.34-0.08,0.65-0.17,0.94-0.27c0.29-0.1,0.52-0.21,0.72-0.33c0.08-0.06,0.13-0.1,0.15-0.14
			c0.02-0.04,0.02-0.1-0.02-0.2l-0.31-0.87c-0.03-0.08-0.08-0.11-0.15-0.08c-0.07,0.02-0.13,0.05-0.18,0.07
			c-0.51,0.23-1.03,0.4-1.57,0.51c-0.54,0.11-1.12,0.17-1.74,0.17c-0.45,0-0.87-0.05-1.28-0.15c-0.4-0.1-0.76-0.26-1.08-0.49
			c-0.31-0.23-0.56-0.54-0.75-0.93c-0.19-0.39-0.28-0.87-0.28-1.44c0-0.62,0.1-1.2,0.31-1.75c0.21-0.55,0.5-1.02,0.87-1.43
			c0.37-0.41,0.82-0.72,1.35-0.96c0.52-0.23,1.1-0.35,1.74-0.35c0.48,0,0.91,0.07,1.28,0.2c0.37,0.13,0.68,0.31,0.92,0.54
			c0.25,0.23,0.43,0.5,0.55,0.8c0.12,0.31,0.18,0.64,0.18,0.99c0,0.3-0.04,0.6-0.12,0.9c-0.08,0.3-0.18,0.57-0.32,0.8
			c-0.13,0.24-0.28,0.43-0.44,0.58c-0.16,0.15-0.33,0.23-0.51,0.23c-0.18,0-0.29-0.05-0.33-0.14c-0.04-0.09-0.03-0.23,0.01-0.41
			l0.56-2.7c0.02-0.06,0.02-0.12,0.02-0.17c0-0.05-0.05-0.07-0.14-0.07h-0.94c-0.09,0-0.15,0.03-0.18,0.1
			c-0.03,0.07-0.06,0.13-0.1,0.2c-0.25-0.26-0.66-0.39-1.2-0.39c-0.29,0-0.56,0.09-0.82,0.27c-0.26,0.18-0.48,0.42-0.68,0.71
			c-0.19,0.29-0.35,0.64-0.46,1.02c-0.12,0.39-0.17,0.79-0.17,1.2c0,0.46,0.1,0.84,0.31,1.13c0.21,0.29,0.54,0.44,0.99,0.44
			c0.3,0,0.56-0.06,0.76-0.18c0.21-0.12,0.42-0.29,0.63-0.49c0.12,0.45,0.5,0.68,1.16,0.68c0.46,0,0.9-0.09,1.3-0.27
			c0.41-0.18,0.77-0.43,1.08-0.76c0.31-0.33,0.56-0.72,0.74-1.19c0.18-0.47,0.27-0.99,0.27-1.57c0-0.59-0.1-1.11-0.31-1.57
			C276.66,48.82,276.37,48.43,275.99,48.11z M272.76,52.31c-0.06,0.35-0.19,0.62-0.38,0.82c-0.19,0.2-0.36,0.3-0.52,0.3
			c-0.15,0-0.24-0.04-0.28-0.11c-0.04-0.08-0.05-0.19-0.05-0.35c0-0.12,0.02-0.28,0.05-0.49c0.03-0.21,0.08-0.42,0.15-0.63
			c0.07-0.21,0.15-0.38,0.26-0.54c0.1-0.15,0.22-0.23,0.36-0.23c0.1,0,0.21,0.03,0.32,0.09c0.11,0.06,0.2,0.13,0.28,0.21
			L272.76,52.31z"/>
		<path d="M367.02,48.11c-0.38-0.32-0.84-0.57-1.36-0.74c-0.53-0.17-1.11-0.26-1.76-0.26c-0.81,0-1.57,0.14-2.28,0.42
			c-0.71,0.28-1.32,0.68-1.85,1.19c-0.53,0.51-0.95,1.11-1.25,1.82c-0.31,0.7-0.46,1.48-0.46,2.32c0,0.76,0.13,1.42,0.38,1.98
			c0.25,0.56,0.6,1.01,1.04,1.38c0.44,0.36,0.96,0.63,1.56,0.81c0.6,0.18,1.25,0.27,1.96,0.27c0.35,0,0.71-0.02,1.08-0.07
			c0.37-0.04,0.72-0.1,1.06-0.18c0.34-0.08,0.65-0.17,0.94-0.27c0.29-0.1,0.52-0.21,0.72-0.33c0.08-0.06,0.13-0.1,0.15-0.14
			c0.02-0.04,0.02-0.1-0.02-0.2l-0.31-0.87c-0.03-0.08-0.08-0.11-0.15-0.08c-0.07,0.02-0.13,0.05-0.18,0.07
			c-0.51,0.23-1.03,0.4-1.57,0.51c-0.54,0.11-1.12,0.17-1.74,0.17c-0.45,0-0.87-0.05-1.28-0.15c-0.4-0.1-0.76-0.26-1.08-0.49
			c-0.31-0.23-0.56-0.54-0.75-0.93c-0.19-0.39-0.28-0.87-0.28-1.44c0-0.62,0.1-1.2,0.31-1.75c0.21-0.55,0.5-1.02,0.87-1.43
			c0.37-0.41,0.82-0.72,1.35-0.96c0.52-0.23,1.1-0.35,1.74-0.35c0.48,0,0.91,0.07,1.28,0.2c0.37,0.13,0.68,0.31,0.92,0.54
			c0.25,0.23,0.43,0.5,0.55,0.8c0.12,0.31,0.18,0.64,0.18,0.99c0,0.3-0.04,0.6-0.12,0.9c-0.08,0.3-0.18,0.57-0.32,0.8
			c-0.13,0.24-0.28,0.43-0.44,0.58s-0.33,0.23-0.51,0.23c-0.18,0-0.29-0.05-0.33-0.14c-0.04-0.09-0.03-0.23,0.01-0.41l0.56-2.7
			c0.02-0.06,0.02-0.12,0.02-0.17c0-0.05-0.05-0.07-0.14-0.07h-0.94c-0.09,0-0.15,0.03-0.18,0.1c-0.03,0.07-0.06,0.13-0.1,0.2
			c-0.25-0.26-0.66-0.39-1.2-0.39c-0.29,0-0.56,0.09-0.82,0.27c-0.26,0.18-0.48,0.42-0.68,0.71c-0.19,0.29-0.35,0.64-0.46,1.02
			c-0.12,0.39-0.17,0.79-0.17,1.2c0,0.46,0.1,0.84,0.31,1.13c0.21,0.29,0.54,0.44,0.99,0.44c0.3,0,0.56-0.06,0.76-0.18
			c0.21-0.12,0.42-0.29,0.63-0.49c0.12,0.45,0.5,0.68,1.16,0.68c0.46,0,0.9-0.09,1.3-0.27c0.41-0.18,0.77-0.43,1.08-0.76
			c0.31-0.33,0.56-0.72,0.74-1.19c0.18-0.47,0.27-0.99,0.27-1.57c0-0.59-0.1-1.11-0.31-1.57C367.7,48.82,367.4,48.43,367.02,48.11z
			 M363.79,52.31c-0.06,0.35-0.19,0.62-0.38,0.82c-0.19,0.2-0.36,0.3-0.52,0.3c-0.15,0-0.24-0.04-0.28-0.11
			c-0.04-0.08-0.05-0.19-0.05-0.35c0-0.12,0.02-0.28,0.05-0.49c0.03-0.21,0.08-0.42,0.15-0.63c0.07-0.21,0.15-0.38,0.26-0.54
			c0.1-0.15,0.22-0.23,0.36-0.23c0.1,0,0.21,0.03,0.32,0.09c0.11,0.06,0.2,0.13,0.28,0.21L363.79,52.31z"/>
	</g>
</g>
</svg>
